<svg width="705" height="365" viewBox="0 0 705 365" fill="none" xmlns="http://www.w3.org/2000/svg">
<path d="M2 1C1.44772 1 1 1.44772 1 2V156.994V157.01C1 157.563 1.44772 158.01 2 158.01H70.7477C80.4185 158.01 88.732 154.488 95.6529 147.498L95.6533 147.498C102.57 140.504 106.049 132.196 106.049 122.614V36.3965C106.049 26.7594 102.571 18.434 95.6517 11.4702C88.7301 4.50458 80.4088 1 70.7477 1H2ZM53.5245 138.723H37.2932V20.279H53.5245C57.9206 20.279 61.7082 21.8512 64.9358 25.0341C68.1587 28.2126 69.7477 31.9826 69.7477 36.3884V122.614C69.7477 126.965 68.1811 130.731 65.0079 133.936C61.843 137.133 58.0368 138.723 53.5245 138.723Z" fill="white" stroke="#121212" stroke-width="2" stroke-linejoin="round"/>
<path d="M124.553 156.994C124.553 157.546 125 157.994 125.553 157.994H159.927C160.479 157.994 160.927 157.546 160.927 156.994V2C160.927 1.44772 160.479 1 159.927 1H125.553C125 1 124.553 1.44772 124.553 2V156.994Z" fill="white" stroke="#121212" stroke-width="2" stroke-linejoin="round"/>
<path d="M231.027 89.0318H247.258V122.557C246.993 127.822 245.478 131.688 242.84 134.307C240.201 136.927 236.304 138.433 231.003 138.699C226.554 138.693 222.761 137.133 219.576 133.985C216.388 130.834 214.804 127.057 214.804 122.59V36.3725C214.804 31.9638 216.379 28.1931 219.578 25.0158L219.579 25.0149C222.77 21.8377 226.571 20.2632 231.027 20.2632H248.258C253.083 20.2632 256.734 21.6277 259.346 24.2485C261.977 26.8872 263.678 30.9218 264.335 36.4977C264.395 37.0012 264.821 37.3806 265.328 37.3806H282.56C282.835 37.3806 283.097 37.2673 283.286 37.0675C283.475 36.8677 283.574 36.5989 283.558 36.3244C282.905 24.7172 279.677 15.8476 273.728 9.88214C267.77 3.90682 259.228 0.992188 248.266 0.992188H213.812C203.929 0.992188 195.553 4.51848 188.738 11.5522C181.93 18.5702 178.511 26.8672 178.511 36.3886V122.598C178.511 132.29 181.987 140.625 188.909 147.566C195.831 154.507 204.152 157.994 213.812 157.994H248.266C256.733 157.994 264.715 155.023 272.193 149.141C279.806 143.155 283.56 134.248 283.56 122.606V70.9387C283.56 70.3864 283.112 69.9387 282.56 69.9387H231.247C231.125 69.9113 230.997 69.9063 230.868 69.9272C230.383 70.0054 230.027 70.4237 230.027 70.9144V88.0318C230.027 88.5841 230.475 89.0318 231.027 89.0318Z" fill="white" stroke="#121212" stroke-width="2" stroke-linejoin="round"/>
<path d="M352.54 70.9144V70.9387V88.0318C352.54 88.5841 352.988 89.0318 353.54 89.0318H369.763V122.557C369.502 127.822 367.988 131.688 365.352 134.307C362.714 136.927 358.817 138.433 353.515 138.699C349.068 138.693 345.282 137.134 342.089 133.985C338.901 130.834 337.317 127.057 337.317 122.59V36.3725C337.317 31.9638 338.892 28.1931 342.091 25.0158L342.092 25.0149C345.283 21.8377 349.084 20.2632 353.54 20.2632H370.763C375.584 20.2632 379.235 21.6276 381.848 24.2486C384.48 26.8874 386.183 30.9221 386.84 36.4977C386.9 37.0012 387.326 37.3806 387.833 37.3806H405.065C405.34 37.3806 405.602 37.2673 405.791 37.0675C405.98 36.8677 406.078 36.5989 406.063 36.3244C405.41 24.7172 402.182 15.8476 396.233 9.88214C390.274 3.90682 381.733 0.992188 370.771 0.992188H336.317C326.442 0.992188 318.058 4.51838 311.243 11.5522C304.435 18.5702 301.016 26.8672 301.016 36.3886V122.598C301.016 132.29 304.492 140.625 311.414 147.566C318.336 154.507 326.657 157.994 336.317 157.994H370.771C379.238 157.994 387.22 155.023 394.698 149.141C402.311 143.155 406.065 134.248 406.065 122.606V70.9387C406.065 70.3864 405.617 69.9387 405.065 69.9387H353.76C353.689 69.9228 353.616 69.9144 353.54 69.9144C352.988 69.9144 352.54 70.3621 352.54 70.9144Z" fill="white" stroke="#121212" stroke-width="2" stroke-linejoin="round"/>
<path d="M420.151 156.994C420.151 157.546 420.599 157.994 421.151 157.994H455.525C456.077 157.994 456.525 157.546 456.525 156.994V2C456.525 1.44772 456.077 1 455.525 1H421.151C420.599 1 420.151 1.44772 420.151 2V156.994Z" fill="white" stroke="#121212" stroke-width="2" stroke-linejoin="round"/>
<path d="M471.079 156.994C471.079 157.546 471.527 157.994 472.079 157.994H490.181C490.733 157.994 491.181 157.546 491.181 156.994V68.5883L576.08 157.684C576.269 157.882 576.531 157.994 576.804 157.994H586.403C586.956 157.994 587.403 157.546 587.403 156.994V2C587.403 1.44772 586.956 1 586.403 1H568.302C567.749 1 567.302 1.44772 567.302 2V89.6153L482.326 1.30662C482.138 1.11071 481.877 1 481.605 1H472.079C471.527 1 471.079 1.44772 471.079 2V156.994Z" fill="white" stroke="#121212" stroke-width="2" stroke-linejoin="round"/>
<path d="M651 89.0318H667.232V122.557C666.966 127.822 665.451 131.688 662.813 134.307C660.174 136.927 656.277 138.433 650.976 138.699C646.528 138.693 642.742 137.133 639.549 133.985C636.361 130.834 634.777 127.057 634.777 122.59V36.3725C634.777 31.9648 636.359 28.1934 639.552 25.0149C642.743 21.8377 646.544 20.2632 651 20.2632H668.232C673.056 20.2632 676.707 21.6277 679.319 24.2485C681.95 26.8872 683.651 30.9218 684.308 36.4977C684.368 37.0012 684.795 37.3806 685.302 37.3806H702.533C702.808 37.3806 703.071 37.2673 703.26 37.0675C703.448 36.8677 703.547 36.5989 703.531 36.3244C702.878 24.7172 699.65 15.8476 693.701 9.88214C687.743 3.90682 679.202 0.992188 668.24 0.992188H633.785C623.911 0.992188 615.527 4.51838 608.711 11.5522C601.903 18.5702 598.484 26.8672 598.484 36.3886V122.598C598.484 132.29 601.961 140.625 608.882 147.566C615.804 154.507 624.125 157.994 633.785 157.994H668.24C676.706 157.994 684.688 155.023 692.166 149.141C699.779 143.155 703.533 134.248 703.533 122.606V70.9387C703.533 70.3864 703.085 69.9387 702.533 69.9387H651.22C651.098 69.9113 650.97 69.9063 650.84 69.9273C650.356 70.0057 650 70.4238 650 70.9144V88.0318C650 88.5841 650.448 89.0318 651 89.0318Z" fill="white" stroke="#121212" stroke-width="2" stroke-linejoin="round"/>
<path d="M242.707 328.648C242.718 328.471 242.683 328.294 242.603 328.136L242.595 328.12C242.426 327.781 242.08 327.566 241.701 327.566H224.466C223.957 327.566 223.53 327.948 223.472 328.454C222.842 334.028 221.153 338.061 218.522 340.698C215.909 343.318 212.244 344.684 207.393 344.684H190.158C185.651 344.684 181.837 343.1 178.673 339.897L178.672 339.896C175.498 336.691 173.932 332.933 173.932 328.574V242.357C173.932 237.948 175.507 234.178 178.707 231L178.707 230.999C181.899 227.822 185.701 226.248 190.158 226.248H207.393C212.218 226.248 215.87 227.612 218.483 230.233C221.114 232.872 222.815 236.906 223.473 242.482C223.532 242.986 223.959 243.365 224.466 243.365H241.701C241.976 243.365 242.238 243.252 242.427 243.052C242.616 242.852 242.715 242.583 242.699 242.309C242.046 230.701 238.818 221.832 232.867 215.866C226.907 209.891 218.365 206.977 207.401 206.977H172.94C163.063 206.977 154.686 210.503 147.869 217.528C141.06 224.546 137.64 232.843 137.64 242.365V328.574C137.64 338.267 141.117 346.601 148.04 353.542C154.964 360.484 163.286 363.971 172.948 363.971H207.409C218.267 363.971 226.756 361.054 232.715 355.081C238.663 349.119 241.948 340.253 242.707 328.648Z" fill="white" stroke="#121212" stroke-width="2" stroke-linejoin="round"/>
<path d="M253.333 206.977C252.781 206.977 252.333 207.424 252.333 207.977V362.971V362.979C252.333 363.531 252.781 363.979 253.333 363.979H339.167C339.72 363.979 340.167 363.531 340.167 362.979V345.7C340.167 345.148 339.72 344.7 339.167 344.7H288.633V207.977C288.633 207.424 288.185 206.977 287.633 206.977H253.333Z" fill="white" stroke="#121212" stroke-width="2" stroke-linejoin="round"/>
<path d="M448.992 207.977C448.992 207.424 448.544 206.977 447.992 206.977H413.692H413.676C413.124 206.977 412.676 207.424 412.676 207.977V328.582C412.676 332.933 411.109 336.7 407.935 339.905C404.77 343.101 400.955 344.692 396.449 344.692C391.943 344.692 388.129 343.108 384.964 339.905L384.963 339.905C381.789 336.699 380.223 332.941 380.223 328.582V207.977C380.223 207.424 379.775 206.977 379.223 206.977H344.923C344.371 206.977 343.923 207.424 343.923 207.977V328.582C343.923 338.275 347.4 346.609 354.323 353.55C361.247 360.492 369.561 363.979 379.231 363.979H413.692C423.365 363.979 431.68 360.457 438.602 353.467L438.603 353.466C445.512 346.472 448.992 338.165 448.992 328.582V207.977Z" fill="white" stroke="#121212" stroke-width="2" stroke-linejoin="round"/>
<path d="M462.832 206.977C462.28 206.977 461.832 207.424 461.832 207.977V362.971V363.003C461.832 363.555 462.28 364.003 462.832 364.003H531.593C541.156 364.003 549.452 360.479 556.42 353.494C563.395 346.5 566.901 338.191 566.901 328.607V319.886C566.901 310.557 563.96 302.33 558.095 295.23C553.58 289.765 547.374 286.414 539.565 285.112C547.348 283.251 553.527 280.078 558.034 275.534C563.977 269.542 566.901 261.353 566.901 251.093V242.373C566.901 232.736 563.423 224.41 556.502 217.447C549.579 210.481 541.256 206.977 531.593 206.977H462.832ZM498.132 275.915V226.256H514.367C518.764 226.256 522.552 227.828 525.78 231.011C529.004 234.189 530.593 237.959 530.593 242.365V259.644C530.593 264.05 529.003 267.847 525.774 271.085C522.545 274.322 518.759 275.915 514.367 275.915H498.132ZM514.367 344.7H498.124V295.032H514.358C519.947 295.032 523.956 296.433 526.575 299.059C529.195 301.686 530.593 305.707 530.593 311.311V328.59C530.593 332.937 529.006 336.701 525.778 339.907C522.549 343.114 518.761 344.7 514.367 344.7Z" fill="white" stroke="#121212" stroke-width="2" stroke-linejoin="round"/>
</svg>
