
<svg width="2266" height="3016" viewBox="0 0 2266 3016" fill="none" xmlns="http://www.w3.org/2000/svg">
<path d="M1401.9 1147.38C1409.03 1147.38 1414.08 1147.23 1419.12 1147.42C1423.6 1147.58 1428.21 1149.1 1426.84 1154.51C1425.97 1157.95 1422.3 1163.27 1419.93 1163.25C1414.77 1163.23 1409.16 1161.06 1404.69 1158.25C1402.69 1156.99 1402.99 1152.07 1401.92 1147.36L1401.9 1147.38Z" fill="white"/>
<path d="M1355.61 1362.97C1361.96 1362.36 1365.42 1366.24 1363.85 1371.47C1362.83 1374.91 1357.57 1379.5 1354.46 1379.31C1350.61 1379.07 1344.37 1374.85 1343.89 1371.61C1342.7 1363.88 1349.83 1363.5 1355.61 1362.97Z" fill="white"/>
<path d="M1108.68 1192.33C1105.31 1194.85 1101.92 1199.42 1098.61 1199.37C1094.44 1199.29 1089.68 1197.14 1089.63 1189.94C1089.57 1182.54 1093.16 1181.15 1098.66 1180.8C1105.27 1180.37 1107.86 1183.94 1108.68 1192.33Z" fill="white"/>
<path d="M1398.27 1699.45C1396.14 1696.08 1392.86 1692.95 1392.1 1689.3C1390.66 1682.3 1395.73 1681.04 1401.49 1680.86C1406.77 1680.69 1411.58 1683.17 1410.86 1687.84C1410.21 1692.06 1405.45 1695.65 1402.51 1699.5C1401.1 1699.48 1399.68 1699.46 1398.27 1699.45Z" fill="white"/>
<path d="M1339.39 1464.79C1345.04 1465.01 1350 1464.48 1349.65 1472.05C1349.33 1478.55 1346.07 1481.18 1340.2 1481.18C1335.13 1481.18 1331.85 1479.34 1332.02 1473.16C1332.17 1467.31 1333.52 1463.72 1339.39 1464.79Z" fill="white"/>
<path d="M1602.57 385.857C1601.48 379.174 1605.05 377.86 1610.37 377.674C1617.89 377.397 1619.5 382.84 1619.81 388.079C1620.18 394.225 1614.85 394.577 1610.24 394.596C1604.17 394.633 1601.44 391.559 1602.56 385.857H1602.57Z" fill="white"/>
<path d="M1486.74 846.3C1485.07 847.3 1481.35 851.262 1478.98 850.558C1475.5 849.54 1471.57 845.671 1470.43 842.172C1469.06 838.025 1470.52 833.582 1477.15 833.489C1484.28 833.396 1486.76 836.803 1486.74 846.282V846.3Z" fill="white"/>
<path d="M1205.09 1239.48C1199.28 1238.32 1193.98 1238.1 1189.71 1235.89C1188.35 1235.21 1188.45 1227.1 1190.11 1226.08C1193.93 1223.77 1199.11 1223.73 1205.09 1222.49V1239.48Z" fill="white"/>
<path d="M710.142 829.231C712.512 825.029 714.345 820.345 717.53 816.92C718.585 815.79 724.066 817.031 725.825 818.845C727.658 820.733 728.769 826.695 727.899 827.269C723.603 830.027 718.53 831.564 713.716 833.526C712.531 832.101 711.327 830.675 710.142 829.231Z" fill="white"/>
<path d="M1083.22 2818.42C1086.7 2823.63 1089.74 2826.38 1090.22 2829.53C1090.5 2831.36 1085.83 2835.97 1084.81 2835.6C1080.57 2834.01 1076.85 2830.98 1072.94 2828.48C1075.74 2825.76 1078.54 2823.03 1083.24 2818.44L1083.22 2818.42Z" fill="white"/>
<path d="M1020.45 1366.86C1023.78 1372.43 1026.43 1375.19 1027.14 1378.37C1028.32 1383.83 1024.65 1386.68 1019.84 1385C1016.54 1383.85 1012.73 1380.44 1011.91 1377.32C1011.4 1375.35 1016.03 1372.06 1020.47 1366.87L1020.45 1366.86Z" fill="white"/>
<path d="M1390.99 760.639C1386.42 759.084 1381.66 757.918 1377.44 755.715C1376.48 755.215 1376.66 749.346 1377.59 748.958C1380.96 747.532 1385.84 745.699 1388.31 747.162C1391.14 748.846 1391.99 753.845 1393.7 757.4C1392.79 758.473 1391.9 759.547 1390.99 760.621V760.639Z" fill="white"/>
<path d="M965.218 1902.56C969.365 1904.44 973.68 1906.05 977.457 1908.5C978.012 1908.85 976.772 1914.2 975.068 1915.35C972.587 1917.03 966.736 1918.33 966.218 1917.46C964.088 1913.87 963.403 1909.42 962.2 1905.28L965.218 1902.54V1902.56Z" fill="white"/>
<path d="M1404.56 1224.91C1409.4 1221.79 1412.47 1218.42 1414.19 1219.01C1417.38 1220.08 1419.77 1223.49 1422.49 1225.91C1419.78 1228.19 1417.28 1231.89 1414.34 1232.28C1412.1 1232.58 1409.3 1228.67 1404.56 1224.91Z" fill="white"/>
<path d="M995.232 1252.91C991.047 1247.5 987.548 1244.69 986.807 1241.26C986.456 1239.71 991.27 1235.58 994.195 1235.04C999.917 1233.99 1002.27 1238.56 1001.81 1243.45C1001.56 1245.91 998.713 1248.11 995.251 1252.93L995.232 1252.91Z" fill="white"/>
<path d="M1041.61 965.414C1039.93 962.749 1036.74 959.953 1036.97 957.454C1037.21 954.566 1039.99 950.252 1042.5 949.549C1047.28 948.197 1050.39 951.844 1049.74 956.695C1049.34 959.675 1047.04 962.415 1045.6 965.248C1044.28 965.303 1042.95 965.359 1041.63 965.414H1041.61Z" fill="white"/>
<path d="M582.16 1289.54C578.494 1291.73 574.846 1293.91 570.939 1296.23C565.977 1291.36 564.718 1285.34 569.736 1281.66C571.865 1280.08 578.29 1284.34 582.771 1285.95C582.567 1287.16 582.364 1288.34 582.16 1289.54Z" fill="white"/>
<path d="M1176.06 1117.3C1179.85 1113.59 1182.74 1109.63 1183.67 1110.06C1187.46 1111.76 1190.67 1114.8 1194.09 1117.33C1191.24 1119.15 1188.54 1122 1185.5 1122.41C1183.24 1122.72 1180.54 1119.87 1176.06 1117.3Z" fill="white"/>
<path d="M1775.77 3.7254C1779.47 2.39245 1784.73 -0.958449 1786.21 0.263426C1789.29 2.79974 1790.38 7.7798 1792.95 13.1301L1777.33 13.1301C1776.83 10.1125 1776.36 7.24292 1775.77 3.70689V3.7254Z" fill="white"/>
<path d="M845.716 598.852C840.624 601.87 837.476 605.184 835.254 604.665C832.421 603.999 830.329 600.204 827.904 597.76C830.829 595.464 833.477 592.169 836.773 591.317C838.421 590.891 841.235 594.927 845.697 598.871L845.716 598.852Z" fill="white"/>
<path d="M1168.36 736.683C1170.87 740.775 1173.39 744.885 1176.06 749.217C1168.82 754.16 1163.39 753.901 1161.08 748.087C1159.97 745.292 1163.41 740.682 1164.78 736.905L1168.36 736.683Z" fill="white"/>
<path d="M1875.52 2749.2C1877.02 2743.82 1874.35 2736.48 1883.22 2737.41C1886.66 2737.76 1892.92 2737.84 1890.94 2744.2C1888.46 2752.18 1881.65 2748.81 1875.52 2749.22V2749.2Z" fill="white"/>
<path d="M1592.09 754.623C1598.96 752.975 1604.87 753.475 1605.55 760.732C1605.76 762.954 1599.91 768.137 1597.39 767.786C1590.04 766.786 1591.3 760.473 1592.09 754.604V754.623Z" fill="white"/>
<path d="M1068.44 2180.44C1071.37 2185.27 1074.15 2187.99 1074.44 2190.95C1074.67 2193.08 1071.57 2195.55 1069.94 2197.86C1066.7 2195.4 1063.46 2192.95 1060.22 2190.49C1062.37 2187.84 1064.54 2185.2 1068.43 2180.42L1068.44 2180.44Z" fill="white"/>
<path d="M1176.52 1170.41C1178.19 1173.04 1181.35 1175.8 1181.13 1178.24C1180.89 1180.8 1177.37 1183.04 1175.3 1185.43C1173.19 1183.15 1169.73 1181.09 1169.32 1178.56C1168.93 1176.13 1171.73 1173.21 1173.13 1170.5C1174.26 1170.49 1175.39 1170.45 1176.52 1170.43V1170.41Z" fill="white"/>
<path d="M1282.82 39.0302C1285.67 37.3455 1288.77 34.0316 1291.28 34.4204C1293.84 34.8091 1295.84 38.8635 1298.1 41.3073C1295.67 43.1031 1293.32 46.1948 1290.78 46.3614C1288.25 46.528 1285.51 43.7696 1282.86 42.2885C1282.86 41.2147 1282.86 40.1224 1282.84 39.0487L1282.82 39.0302Z" fill="white"/>
<path d="M1596.06 212.944C1599.98 213.443 1604.15 213.369 1607.72 214.758C1608.76 215.165 1609.2 220.516 1607.98 222.219C1606.76 223.94 1602.09 225.403 1600.78 224.44C1597.98 222.404 1596.35 218.738 1594.26 215.721C1594.85 214.776 1595.44 213.851 1596.04 212.907L1596.06 212.944Z" fill="white"/>
<path d="M571.272 1601.4H584.845C584.067 1605.45 584.289 1609.53 582.419 1612.14C581.382 1613.6 575.309 1613.8 574.346 1612.51C572.365 1609.82 572.328 1605.73 571.272 1601.4Z" fill="white"/>
<path d="M1026.69 1724.18C1030.78 1721.29 1034.87 1718.42 1038.95 1715.53C1039.87 1716.22 1040.8 1716.9 1041.73 1717.59C1041.54 1720.88 1042.36 1726.48 1041 1727.07C1037.21 1728.72 1032.52 1728.29 1028.19 1728.68C1027.69 1727.18 1027.19 1725.68 1026.69 1724.18Z" fill="white"/>
<path d="M1825.84 354.255C1829.15 357.736 1832.76 360.716 1832.41 361.272C1830.56 364.234 1828.08 367.233 1825.06 368.788C1824.14 369.269 1818.82 364.882 1819.14 363.512C1819.77 360.605 1822.77 358.199 1825.84 354.274V354.255Z" fill="white"/>
<path d="M1350.35 1157.3C1354.53 1159.04 1358.72 1160.77 1362.9 1162.51C1359.81 1165.08 1356.74 1167.63 1353.65 1170.21C1351.4 1167.3 1349.18 1164.39 1346.94 1161.49C1348.07 1160.1 1349.22 1158.69 1350.35 1157.3Z" fill="white"/>
<path d="M1058.63 1782.89C1069.98 1780.27 1072.28 1782.18 1070.48 1792.83C1064.09 1792.79 1056.5 1794.7 1058.63 1782.89Z" fill="white"/>
<path d="M927.149 1249.22H937.999C938.203 1252.68 938.407 1255.79 938.592 1258.83C926.612 1261.33 925.871 1260.74 927.149 1249.22Z" fill="white"/>
<path d="M1058.93 1475.1C1050.99 1476.65 1047.19 1473.72 1047.52 1466.33C1058.48 1463.16 1060.02 1464.25 1058.93 1475.1Z" fill="white"/>
<path d="M1886.65 2776.47C1887.68 2774.1 1888.39 2769.97 1889.79 2769.73C1893.53 2769.05 1897.57 2770.05 1901.49 2770.38L1902.11 2774.47C1897.83 2776.36 1893.53 2778.27 1889.26 2780.16C1888.39 2778.94 1887.52 2777.69 1886.63 2776.47H1886.65Z" fill="white"/>
<path d="M2148.61 1103.58C2143.83 1106.3 2141.26 1108.45 2138.37 1109.04C2137.37 1109.24 2134.02 1104.95 2134.48 1103.78C2135.54 1101.12 2137.93 1098.17 2140.46 1097.23C2141.78 1096.75 2144.59 1100.3 2148.61 1103.56V1103.58Z" fill="white"/>
<path d="M377.725 108.399C376.855 113.342 381.04 119.859 372.319 120.081C370.523 120.137 367.301 116.638 367.005 114.472C365.968 106.863 371.504 107.825 377.725 108.399Z" fill="white"/>
<path d="M1430.38 1653.35C1427.73 1653.48 1425.1 1653.61 1420.62 1653.85C1421.47 1649.2 1422.17 1645.28 1422.89 1641.33C1423.84 1641.04 1424.78 1640.72 1425.73 1640.43C1428.23 1643.91 1430.75 1647.39 1433.25 1650.87C1432.28 1651.7 1431.34 1652.52 1430.38 1653.35Z" fill="white"/>
<path d="M2244.78 647.857C2245.08 644.432 2245.35 641.359 2245.65 638.193H2254.93C2255.28 641.34 2255.58 644.173 2255.98 647.857H2244.78Z" fill="white"/>
<path d="M1019.15 1017.77C1016.14 1016.64 1012.95 1015.79 1010.29 1014.1C1009.82 1013.81 1010.95 1009.51 1012.38 1008.11C1013.53 1006.96 1017.54 1006.53 1018.01 1007.25C1019.64 1009.83 1020.3 1012.99 1021.32 1015.96C1020.6 1016.57 1019.9 1017.18 1019.17 1017.77H1019.15Z" fill="white"/>
<path d="M608.545 781.023C610.878 778.708 613.23 776.376 615.563 774.062C617.229 776.098 618.877 778.116 620.543 780.152C617.803 782.022 615.063 783.911 612.341 785.78C611.082 784.188 609.823 782.615 608.545 781.023Z" fill="white"/>
<path d="M684.997 1865.32C688.145 1865.51 691.293 1865.71 696.977 1866.07C694.681 1870.29 692.996 1873.36 691.33 1876.43C688.386 1873.8 685.46 1871.19 682.516 1868.56C683.349 1867.49 684.164 1866.4 684.997 1865.32Z" fill="white"/>
<path d="M961.015 2778.95C964.088 2783.42 966.106 2786.36 968.125 2789.28C967.569 2790.01 967.014 2790.73 966.458 2791.45C962.681 2790.75 958.922 2790.04 953.83 2789.08C956.497 2785.3 958.237 2782.86 960.996 2778.95H961.015Z" fill="white"/>
<path d="M1457.26 660.353C1457.67 664.093 1458.06 667.833 1458.46 671.572C1455.74 671.739 1453.02 671.905 1450.3 672.054C1451.04 668.092 1451.78 664.13 1452.54 660.15C1454.11 660.205 1455.71 660.279 1457.28 660.335L1457.26 660.353Z" fill="white"/>
<path d="M1154.95 2740.76C1159.91 2737.01 1164.27 2737.84 1168.02 2743.24C1161.43 2749.7 1161.15 2749.65 1154.95 2740.76Z" fill="white"/>
<path d="M723.677 1398.01C726.288 1408.95 726.177 1409.08 716.049 1407.84C715.808 1407.05 715.419 1406.21 715.345 1405.36C715.16 1403.29 715.123 1401.2 715.012 1398.42C718.067 1398.29 720.918 1398.16 723.677 1398.03V1398.01Z" fill="white"/>
<path d="M297.403 3015.33C291.256 3017.16 287.738 3015.22 287.46 3009.67C287.386 3008.31 290.626 3005.54 292.293 3005.57C298.866 3005.7 298.31 3010.33 297.403 3015.33Z" fill="white"/>
<path d="M463.287 723.928C466.12 725.89 468.935 727.852 471.768 729.815C469.49 732.166 467.213 734.517 464.935 736.887C463.306 733.443 461.677 730 460.047 726.538C461.121 725.668 462.214 724.798 463.287 723.928Z" fill="white"/>
<path d="M436.18 1461.14V1449.33C438.624 1449.07 441.142 1448.83 444.679 1448.46C444.975 1451.33 446.308 1454.53 445.253 1455.98C443.698 1458.07 440.42 1458.89 436.18 1461.14Z" fill="white"/>
<path d="M487.395 421.551C490.08 425.494 492.783 429.419 496.542 434.954C483.211 435.565 485.562 428.327 484.84 423.032C485.692 422.532 486.544 422.051 487.395 421.551Z" fill="white"/>
<path d="M0 395.743C2.31449 392.818 4.55492 389.986 6.81387 387.153C8.42476 388.93 11.7206 391.226 11.3688 392.374C10.0727 396.539 7.94334 401.149 0.0185159 395.743H0Z" fill="white"/>
<path d="M999.731 1017.25C1000.62 1020.25 1001.49 1023.25 1003.06 1028.58C998.009 1027.36 994.695 1026.55 991.381 1025.73C993.158 1022.62 994.936 1019.49 996.695 1016.38C997.713 1016.68 998.713 1016.96 999.731 1017.25Z" fill="white"/>
<path d="M192.418 2830.49C192.936 2827.24 193.455 2823.98 193.973 2820.72C196.417 2821.26 198.88 2821.81 201.324 2822.35C199.972 2825.5 198.639 2828.66 197.287 2831.81C195.658 2831.36 194.047 2830.92 192.418 2830.49Z" fill="white"/>
<path d="M2147.28 2068.12C2154.9 2066.08 2158.63 2067.82 2157.2 2076.73C2153.7 2076.56 2150.59 2076.43 2146.83 2076.26C2147 2073.04 2147.13 2070.54 2147.26 2068.12H2147.28Z" fill="white"/>
<path d="M948.924 1546.62C943.813 1548.36 940.943 1549.34 937.036 1550.67V1537.34C941.462 1540.81 944.276 1543.01 948.924 1546.62Z" fill="white"/>
<path d="M1607.37 796.555C1604.94 799.091 1602.54 801.646 1600.11 804.183C1598.57 802.313 1597.06 800.461 1595.52 798.592C1598.26 796.555 1601 794.537 1603.74 792.501C1604.94 793.852 1606.15 795.204 1607.35 796.555H1607.37Z" fill="white"/>
<path d="M1136.56 1360.75C1133.25 1361.47 1129.95 1362.52 1126.6 1362.65C1125.88 1362.69 1125.03 1359.41 1124.23 1357.67C1127.99 1356.88 1131.75 1356.06 1135.49 1355.27C1135.84 1357.1 1136.19 1358.93 1136.56 1360.75Z" fill="white"/>
<path d="M495.857 1042.93C498.523 1044.65 501.19 1046.35 503.874 1048.08C502.726 1049.71 501.597 1051.32 500.449 1052.93L492.802 1047.28C493.82 1045.84 494.839 1044.37 495.857 1042.93Z" fill="white"/>
<path d="M908.503 1037.6C910.596 1039.67 914.299 1041.74 914.317 1043.84C914.336 1045.97 910.707 1048.13 908.689 1050.26C907.911 1049.8 907.133 1049.32 906.356 1048.85V1039.08L908.503 1037.58V1037.6Z" fill="white"/>
<path d="M1094.09 908.931C1099.25 904.784 1102.27 902.377 1106.86 898.711V912.152C1102.98 911.171 1099.75 910.356 1094.09 908.931Z" fill="white"/>
<path d="M2174.14 1606.29H2163.64C2163.48 1603.49 2163.31 1600.97 2163.11 1597.68C2165.7 1597.68 2168.44 1596.88 2169.46 1597.85C2171.31 1599.64 2172.16 1602.47 2174.14 1606.27V1606.29Z" fill="white"/>
<path d="M1482.68 543.794C1482.79 547.182 1483.15 550.588 1482.76 553.921C1482.7 554.365 1478.91 554.365 1476.83 554.568C1477.31 550.94 1477.81 547.293 1478.29 543.664C1479.76 543.701 1481.22 543.757 1482.66 543.794H1482.68Z" fill="white"/>
<path d="M1534.43 574.322C1532.21 576.951 1529.99 579.58 1526.47 583.727C1525.07 579.987 1522.88 576.081 1523.53 575.544C1525.84 573.6 1529.12 572.786 1532.03 571.527C1532.84 572.452 1533.64 573.378 1534.45 574.304L1534.43 574.322Z" fill="white"/>
<path d="M2257.61 1379V1370.15C2260.41 1370.61 2263.2 1371.08 2266 1371.54C2264.35 1374.34 2262.7 1377.13 2261.06 1379.93C2259.91 1379.63 2258.74 1379.32 2257.59 1379.02L2257.61 1379Z" fill="white"/>
<path d="M1678.1 1880.93C1676.23 1883.08 1674.69 1885.97 1672.34 1887.06C1671.32 1887.54 1668.6 1884.34 1666.64 1882.82C1669.36 1881.02 1672.08 1879.25 1674.8 1877.45C1675.9 1878.62 1677.01 1879.78 1678.1 1880.95V1880.93Z" fill="white"/>
<path d="M417.146 578.95C414.979 576.932 412.276 575.211 410.943 572.749C410.499 571.915 413.609 569.194 415.109 567.343C416.998 570.194 418.886 573.063 420.775 575.914L417.146 578.95Z" fill="white"/>
<path d="M2213.66 2916.56C2210.79 2914.38 2207.92 2912.19 2203.14 2908.55C2207.95 2907.71 2211.88 2905.82 2213.78 2907.05C2215.64 2908.23 2215.4 2912.66 2216.08 2915.66C2215.27 2915.95 2214.47 2916.27 2213.66 2916.56Z" fill="white"/>
<path d="M1412.36 1501.11C1410.92 1498.32 1409.49 1495.52 1408.05 1492.73C1410.36 1492.45 1413.9 1491.14 1414.71 1492.12C1416.28 1493.97 1416.32 1497.13 1416.99 1499.76C1415.43 1500.21 1413.9 1500.67 1412.34 1501.11H1412.36Z" fill="white"/>
<path d="M608.101 2463.8C605.471 2460.23 603.675 2457.8 601.176 2454.42H614.711C612.322 2457.8 610.637 2460.19 608.101 2463.8Z" fill="white"/>
<path d="M1761.77 994.61C1759.22 996.905 1756.66 999.201 1753.15 1002.35C1749.85 992.481 1752.02 989.833 1761.77 994.61Z" fill="white"/>
</svg>
